<svg width="159" height="42" viewBox="0 0 159 42" fill="none" xmlns="http://www.w3.org/2000/svg">
<path d="M10.7116 39.7338C8.57293 38.0895 7.1211 35.6962 6.64189 33.0249H0V4.01456C3.57992 5.79412 6.12745 9.78744 6.43752 13.8982L7.44173 22.0379L6.95196 21.9596C6.42757 21.9855 5.93147 22.2075 5.56023 22.5825C5.18899 22.9575 4.96916 23.4586 4.94354 23.9883C4.96142 24.4527 5.13341 24.8976 5.43187 25.2513C5.73032 25.6051 6.13789 25.8472 6.58903 25.9387L7.80113 26.2234C9.80955 22.4009 10.9406 18.6567 10.9406 14.9624C10.9406 11.6346 10.5037 8.33176 10.4508 4.95061C10.4541 3.49358 10.9856 2.08821 11.9448 1C12.8995 2.09096 13.4303 3.49455 13.4388 4.95061C13.4388 8.33176 12.949 11.6595 12.949 14.9624C12.949 18.6283 14.0836 22.4009 16.092 26.2234L17.3006 25.9387C17.7521 25.8473 18.1601 25.6054 18.4592 25.2517C18.7582 24.898 18.931 24.453 18.9496 23.9883C18.924 23.4586 18.7042 22.9575 18.3329 22.5825C17.9617 22.2075 17.4656 21.9855 16.9412 21.9596L16.4514 22.0379L17.4557 13.8982C17.9454 9.78744 20.3132 5.80836 23.8896 4.01456V33.0106H17.2478C16.817 35.7033 15.3569 38.1176 13.1816 39.7338C12.6755 40.0888 12.2611 40.5611 11.973 41.1112C11.6564 40.5651 11.226 40.0951 10.7116 39.7338ZM3.13948 23.006C3.46291 21.8996 4.20298 20.9655 5.20075 20.4043L4.40091 13.6882C4.13108 11.6641 3.29219 9.7607 1.98376 8.20364V22.9739H3.13948V23.006ZM6.51504 30.9891C6.52501 30.0166 6.64321 29.0484 6.86739 28.1026L5.9407 27.8962C5.27424 27.6903 4.67003 27.3178 4.18405 26.8132C3.69806 26.3087 3.34605 25.6883 3.16062 25.0097H2.03309V30.9891H6.51504ZM10.9159 30.9891C10.9103 30.3903 10.6914 29.8137 10.2993 29.3647C9.90716 28.9157 9.36807 28.6243 8.78068 28.5439C8.5567 29.3397 8.43821 30.1619 8.42832 30.9891H10.9159ZM10.9159 33.0177H8.70316C9.07601 34.6057 9.83677 36.0741 10.9159 37.2887V33.0177ZM14.0554 26.7502C13.1702 25.1707 12.4544 23.5003 11.9202 21.7674C11.3909 23.5027 10.6736 25.1738 9.78137 26.7502C10.6209 26.9944 11.3669 27.4909 11.9202 28.1738C12.4717 27.489 13.2164 26.99 14.0554 26.743V26.7502ZM15.4226 30.9891C15.4127 30.1619 15.2942 29.3397 15.0702 28.5439C14.4828 28.6243 13.9437 28.9157 13.5516 29.3647C13.1595 29.8137 12.9406 30.3903 12.9349 30.9891H15.4226ZM15.1372 33.0177H12.9244V37.2887C14.0046 36.072 14.7654 34.6011 15.1372 33.0106V33.0177ZM21.8566 30.9891V25.0026H20.7255C20.5401 25.6812 20.1881 26.3015 19.7021 26.8061C19.2161 27.3107 18.6119 27.6832 17.9454 27.8891L17.0187 28.0955C17.2413 29.0416 17.3595 30.0096 17.3711 30.9819L21.8566 30.9891ZM21.8566 23.006V8.22855C20.5099 9.76283 19.6646 11.6793 19.4359 13.7167L18.6396 20.4256C19.1372 20.6976 19.5758 21.0677 19.9292 21.514C20.2827 21.9603 20.5439 22.4737 20.6973 23.0238H21.8566V23.006Z" fill="black"/>
<path d="M84.9016 7.78695C82.9228 6.25953 80.3656 5.75038 77.9606 6.34938C74.6727 7.18798 70.9283 8.65552 67.5491 11.2013C64.1699 8.65552 60.4254 7.18798 57.1375 6.34938C54.7021 5.75038 52.1753 6.25953 50.1965 7.78695C48.1568 9.3444 47 11.6805 47 14.1963V35.1014H48.9179V14.1963C48.9179 12.2795 49.8008 10.4825 51.3534 9.28447C52.8755 8.11642 54.7934 7.7271 56.6504 8.17635C59.6035 8.92507 62.9522 10.213 65.9965 12.4292C63.0435 15.0948 60.4863 18.7187 59.025 23.6905C58.3553 25.9367 58.3857 28.183 59.1163 30.2495C59.9992 32.7653 62.1302 35.7304 67.1838 35.97H67.8839C72.9375 35.7004 75.0685 32.7653 75.9513 30.2495C76.682 28.183 76.7124 25.9367 76.0427 23.6905C74.5814 18.7187 72.0242 15.0948 69.0712 12.4292C72.1155 10.213 75.4643 8.92507 78.4172 8.17635C80.2743 7.6971 82.1922 8.11642 83.7143 9.28447C85.2669 10.4825 86.1498 12.2495 86.1498 14.1963V35.1014H88.0677V14.1963C88.0981 11.6805 86.9413 9.3444 84.9016 7.78695ZM74.1856 24.2595C74.7337 26.0865 74.7032 28.0033 74.1248 29.6805C73.1202 32.5557 70.8978 34.0532 67.5186 34.1431C64.1395 34.0532 61.9171 32.5557 60.9125 29.6805C60.3341 28.0332 60.3036 26.0865 60.8516 24.2595C62.2215 19.5574 64.657 16.173 67.5186 13.6871C70.3802 16.1431 72.8157 19.5574 74.1856 24.2595Z" fill="black"/>
<path d="M95.831 4.40259H93.9131V35.1014H95.831V4.40259Z" fill="black"/>
<path d="M113.153 35.1013H111.235C111.235 28.8718 106.09 23.8402 99.7882 23.8402H95.0391V21.9532H99.7882C107.125 21.9233 113.153 27.8534 113.153 35.1013Z" fill="black"/>
<path d="M107.825 18.7786C103.806 18.7786 100.519 15.574 100.519 11.5906C100.519 7.63717 103.776 4.40259 107.825 4.40259C111.843 4.40259 115.131 7.60725 115.131 11.5906C115.131 15.544 111.843 18.7786 107.825 18.7786ZM107.825 6.34934C104.872 6.34934 102.497 8.71537 102.497 11.5906C102.497 14.4958 104.902 16.8319 107.825 16.8319C110.778 16.8319 113.152 14.4658 113.152 11.5906C113.152 8.68545 110.778 6.34934 107.825 6.34934Z" fill="black"/>
<path d="M125.604 14.1364C121.646 14.1364 118.419 10.9617 118.419 7.06822C118.419 3.17471 121.646 0 125.604 0C129.561 0 132.788 3.17471 132.788 7.06822C132.788 10.9617 129.561 14.1364 125.604 14.1364ZM125.604 1.88686C122.711 1.88686 120.367 4.19301 120.367 7.03827C120.367 9.8835 122.711 12.1897 125.604 12.1897C128.496 12.1897 130.84 9.8835 130.84 7.03827C130.87 4.22297 128.496 1.88686 125.604 1.88686Z" fill="black"/>
<path d="M136.654 35.1017H134.736V18.06C134.736 11.471 140.186 6.13989 146.853 6.13989C153.55 6.13989 158.969 11.501 158.969 18.06V35.1017H157.051V18.06C157.051 12.5192 152.485 8.02673 146.853 8.02673C141.221 8.02673 136.654 12.5192 136.654 18.06V35.1017Z" fill="black"/>
<path d="M126.578 21.9236H124.66V35.1017H126.578V21.9236Z" fill="black"/>
</svg>
